<?xml version="1.0" standalone="no"?>
<!DOCTYPE svg PUBLIC "-//W3C//DTD SVG 1.1//EN" "http://www.w3.org/Graphics/SVG/1.1/DTD/svg11.dtd" >
<!--
2013-9-30: Created.
-->
<svg>
<metadata>
Created by iconfont
</metadata>
<defs>

<font id="iconfont" horiz-adv-x="1024" >
  <font-face
    font-family="iconfont"
    font-weight="500"
    font-stretch="normal"
    units-per-em="1024"
    ascent="896"
    descent="-128"
  />
    <missing-glyph />
    
    <glyph glyph-name="x" unicode="x" horiz-adv-x="1001"
d="M281 543q-27 -1 -53 -1h-83q-18 0 -36.5 -6t-32.5 -18.5t-23 -32t-9 -45.5v-76h912v41q0 16 -0.5 30t-0.5 18q0 13 -5 29t-17 29.5t-31.5 22.5t-49.5 9h-133v-97h-438v97zM955 310v-52q0 -23 0.5 -52t0.5 -58t-10.5 -47.5t-26 -30t-33 -16t-31.5 -4.5q-14 -1 -29.5 -0.5
t-29.5 0.5h-32l-45 128h-439l-44 -128h-29h-34q-20 0 -45 1q-25 0 -41 9.5t-25.5 23t-13.5 29.5t-4 30v167h911zM163 247q-12 0 -21 -8.5t-9 -21.5t9 -21.5t21 -8.5q13 0 22 8.5t9 21.5t-9 21.5t-22 8.5zM316 123q-8 -26 -14 -48q-5 -19 -10.5 -37t-7.5 -25t-3 -15t1 -14.5
t9.5 -10.5t21.5 -4h37h67h81h80h64h36q23 0 34 12t2 38q-5 13 -9.5 30.5t-9.5 34.5q-5 19 -11 39h-368zM336 498v228q0 11 2.5 23t10 21.5t20.5 15.5t34 6h188q31 0 51.5 -14.5t20.5 -52.5v-227h-327z" />
    

    
    <glyph glyph-name="lock" unicode="&#58911;" d="M374.359539 559.730327c0 50.870598 13.406897 169.175027 137.631251 169.175027 119.755388 0 137.631251-105.990986 137.631251-169.175027l0-37.262672 103.223182 0 0 37.262672c0 165.479869-94.554391 272.393877-240.854433 272.393877s-240.854433-106.915032-240.854433-272.393877l0-37.262672 103.223182 0L374.359539 559.730327zM752.854433 488.054891L271.145567 488.054891c-56.987244 0-103.223182-46.235021-103.223182-103.21885l0-344.063173c0-56.986899 46.235938-103.21885 103.223182-103.21885l481.708865 0c56.988267 0 103.223182 46.231951 103.223182 103.21885L856.077615 384.836041C856.077615 441.81987 809.8427 488.054891 752.854433 488.054891zM546.407045 187.93964900000003l0-78.353532c0-18.950607-15.456666-34.406624-34.408068-34.406624-18.952426 0-34.408068 15.454994-34.408068 34.406624l0 78.353532c-20.497683 11.92868-34.408068 33.869389-34.408068 59.271942 0 38.001499 30.810996 68.812225 68.815114 68.812225 38.002071 0 68.815114-30.810726 68.815114-68.812225C580.815114 221.809037 566.903705 199.86832900000002 546.407045 187.93964900000003z"  horiz-adv-x="1024" />

    
    <glyph glyph-name="time" unicode="&#58928;" d="M511.95112924 805.8750115299999C278.96911801 805.8750115299999 90.12498847 617.00019635 90.12498847 384c0-233.01838064 188.84412872-421.87501153 421.82614077-421.87501153 233.01724438 0 421.92388147 188.85663089 421.92388148 421.87501153C933.87501153 617.00019635 744.96950989 805.8750115299999 511.95112924 805.8750115299999L511.95112924 805.8750115299999zM511.95112924 29.792240480000032c-195.56096127 0-354.15888877 158.57974319-354.15888876 354.20775952 0 195.60983121 158.59792749 354.20321283 354.15888876 354.20321283 195.70643564 0 354.25662946-158.59338162 354.25662946-354.20321283C866.20775952 188.37198450000005 707.65756571 29.792240480000032 511.95112924 29.792240480000032L511.95112924 29.792240480000032zM552.46237814 366.02821235c-10.01614883 10.74806736-18.84577094 31.51569397-19.6447445 46.18475491L520.57276861 643.11742127c-0.78192554 14.66792468-11.51635529 26.66843674-23.84418548 26.66843674-12.32896646 0-23.04180232-12.00051289-23.82259158-26.66843674L460.36449649 408.18173164c-0.77737967-14.66792468-0.51938993-33.43868509 0.57280573-41.74891811 1.10469699-8.27500067 10.9742352-23.04066605 21.93483196-32.83064702l175.67300089-156.3203422c10.96173303-9.75815908 27.61515802-9.89113211 36.98121725-0.27958366 9.37174219 9.61154764 8.8478064 26.26383554-1.16720617 36.99940156L552.46237814 366.02821235 552.46237814 366.02821235zM552.46237814 366.02821235"  horiz-adv-x="1024" />

    
    <glyph glyph-name="check" unicode="&#58912;" d="M386.9629625 62.25044062999996c-10.01763656 0-20.03527313 3.80952375-27.62610187 11.45678999l-264.43738969 264.38095219c-15.2945325 15.32275125-15.2945325 39.95767219 0 55.28042344 15.238095 15.20987625 39.98589094 15.20987625 55.19576718 0l236.89594313-236.83950656L876.30335094 645.81305156c15.1816575 15.32275125 39.95767219 15.32275125 55.16754844 0 15.2945325-15.26631375 15.2945325-39.95767219 0-55.22398594L414.58906531 73.65079405999995C406.94179906 66.05996436999999 396.9806 62.25044062999996 386.9629625 62.25044062999996L386.9629625 62.25044062999996zM386.9629625 62.25044062999996"  horiz-adv-x="1024" />

    
    <glyph glyph-name="edit" unicode="&#59039;" d="M905.35837959 494.07669727l0-448.06188341c0-30.73830908-30.40981523-56.33633935-61.12009248-56.33633935L176.52056856-10.321525489999999c-30.71027812 0-55.62416338 24.94191709-55.62416338 55.68022617L120.89640518 713.48550528c0 30.76546464 25.62430958 60.62954151 56.36261865 60.6295415L625.32178349 774.1150459 625.32178349 830.12289053 177.25902383 830.12289053c-61.47661816 0-112.01481386-55.13273614-112.01481386-116.63738613L65.24420997 45.35957695000002c0-61.50552627 49.82689599-111.35957695 111.27635859-111.35957695l667.71771855 0c61.4494626 0 117.12881338 50.51104013 117.12881338 112.01481386L961.36710136 494.07669727 905.35837959 494.07669727zM292.36693994 324.13913584L171.92777979 80.36393261c-10.09222207-27.4577458 11.8669667-52.04313721 39.29668154-39.3273413l243.61226982 120.52150312c10.50043096 2.05155615 20.67499512 6.12488584 28.82340616 14.24877012l432.80135068 433.07465801c21.71303701 21.76822442 21.71303701 57.01873183 0 78.76067608L818.0927668 786.06523184c-21.74106885 21.74194424-56.9644207 21.74194424-78.67745772 0L306.61308213 352.99144922000005C298.46467109 344.84128652000004 294.4176207 334.63956592 292.36693994 324.13913584zM759.07678994 727.02209941c10.8587083 10.85695664 28.47038467 10.85695664 39.35274433 0l59.0177294-59.07028798c10.85608037-10.88498847 10.85608037-28.49754023 0-39.38165245l-59.0177294-59.04225615-96.97240195 99.84475635L759.07678994 727.02209941zM659.99939697 627.85973555L759.07678994 530.14712666 444.30826924 215.18676445000006c-36.86407119 36.91925859-87.89544668 87.9769125-98.3424419 98.42303232L659.99939697 627.85973555zM395.3021706 185.48824980999996L244.86315664 94.36392305000004c-13.70303174-6.34300664-26.00799082 6.83706182-19.63520068 19.66323252l91.06563604 150.5485125L395.3021706 185.48824980999996z"  horiz-adv-x="1024" />

    
    <glyph glyph-name="validate" unicode="&#59001;" d="M890.914803 704.1902709999999c-11.351547 9.657974-26.318438 14.989404-41.765261 14.989404-1.419327 0-2.815118-0.046049-4.234445-0.137123-0.869811-0.045026-10.686397-0.595565-26.089218-0.595565-25.517189 0-75.316435 1.578963-122.460198 12.12926-60.920549 13.639662-131.224825 76.826836-151.683806 89.276392-10.298564 6.270827-22.176091 9.40624-34.053618 9.40624-11.832501 0-23.709005-3.135413-34.007569-9.360191-2.471287-1.533938-76.070612-73.210469-148.068462-89.322441-47.143764-10.550297-97.903895-12.12926-123.375035-12.12926-15.401797 0-25.242943 0.549516-26.203828 0.595565-1.327229 0.091074-2.676972 0.137123-4.027737 0.137123-15.493895 0-30.506835-5.354967-41.903407-15.058989-12.380994-10.527785-19.429534-25.265455-19.429534-40.690788l0-139.418446c0-515.426544 370.46996-581.81667 386.192052-584.402567 3.592832-0.595565 7.209199-0.869811 10.824544-0.869811s7.277761 0.274246 10.824544 0.869811c15.722092 2.585897 388.938609 68.976023 388.938609 584.402567L910.392432 663.430921C910.390386 678.90128 903.319333 693.6399739999999 890.914803 704.1902709999999L890.914803 704.1902709999999zM849.148518 524.012476c0-474.735756-338.522308-529.523625-338.522308-529.523625s-335.775752 54.787869-335.775752 529.523625L174.850458 663.430921c0 0 11.579745-0.731665 30.323663-0.731665 32.108311 0 86.163491 2.128479 137.954093 13.730736 84.813749 18.949603 167.499019 97.080133 167.499019 97.080133s86.369176-78.131553 171.091851-97.080133c51.85814-11.603281 104.974948-13.730736 137.105771-13.730736 18.696846 0 30.323663 0.731665 30.323663 0.731665L849.148518 524.012476 849.148518 524.012476zM701.056521 552.894299l-237.276292-215.993548-117.654748 107.149476c-14.624083 13.296854-38.333088 13.296854-52.934659 0-14.624083-13.319367-14.624083-34.87738 0-48.174234l137.267454-124.977534c1.601476-2.539849 3.593855-4.921084 5.973044-7.094589 7.529495-6.865368 17.48525-10.183953 27.348909-9.955756 9.886171-0.229221 19.841927 3.090388 27.370398 9.955756 2.403749 2.173505 4.370545 4.553717 5.974068 7.094589l256.842949 233.820583c14.624083 13.296854 14.624083 34.87738 0 48.174234C739.367096 566.213665 715.680604 566.213665 701.056521 552.894299L701.056521 552.894299zM701.056521 552.894299"  horiz-adv-x="1024" />

    
    <glyph glyph-name="check-circle" unicode="&#59118;" d="M512 834C263.4722 834 62 632.5278000000001 62 384s201.4722-450 450-450 450 201.4722 450 450S760.5278 834 512 834zM808.7309 523.4433L469.9547 184.6662c-8.2683-8.2701-19.107-12.4038-29.9448-12.4038s-21.6765 4.1346-29.9448 12.4038l-194.796 194.796c-16.5384 16.5384-16.5384 43.3512 0 59.8896 16.5375 16.5402 43.353 16.5402 59.8896 0l164.8512-164.8512 308.8314 308.8314c16.5375 16.5402 43.353 16.5402 59.8896 0C825.2702 566.7945 825.2702 539.9817 808.7309 523.4433z"  horiz-adv-x="1024" />

    
    <glyph glyph-name="breadcrumb" unicode="&#59324;" d="M944 432L80 432C53 432 32 411 32 384c0-27 21-48 48-48l864 0c27 0 48 21 48 48C992 411 971 432 944 432zM80 720l864 0c27 0 48 21 48 48 0 27-21 48-48 48L80 816C53 816 32 795 32 768 32 741 53 720 80 720zM944 48L80 48c-27 0-48-21-48-48 0-27 21-48 48-48l864 0c27 0 48 21 48 48C992 27 971 48 944 48z"  horiz-adv-x="1024" />

    
    <glyph glyph-name="safe" unicode="&#59009;" d="M929.39130406 783.02608688C929.39130406 783.02608688 929.39130406 293.80173936999995 929.39130406 293.80173936999995 929.39130406 264.45913031 922.42086969 235.28347781000002 908.52173937 206.27478281000003 894.58086969 177.18260906 876.38260906 149.09217375000003 853.84347781 121.79478281000002 831.3043475 94.53913031000002 805.55130406 68.70260905999999 776.62608687 44.36869593999995 747.65913031 19.99304343999995 718.31652219-1.711304059999975 688.55652219-20.744347500000003 658.75478281-39.81913030999999 629.82956563-55.67999999999995 601.73913031-68.28521719000003 573.64869594-80.89043436999998 549.02260906-89.53043437999997 527.86086969-94.24695655999994 527.86086969-94.24695655999994 517.84347781-96 517.84347781-96 517.84347781-96 508.66086969-94.24695655999994 508.66086969-94.24695655999994 486.95652219-89.53043437999997 461.78782625-80.89043436999998 433.11304344-68.28521719000003 404.43826062-55.67999999999995 374.67826063-39.81913030999999 343.79130406-20.744347500000003 312.9043475-1.711304059999975 282.60173938 19.99304343999995 252.8 44.36869593999995 223.04 68.70260905999999 196.45217375 94.53913031000002 173.07826062 121.79478281000002 149.7043475 149.09217375000003 130.79652219 177.18260906 116.35478281 206.27478281000003 101.82956562 235.28347781000002 94.60869594 264.45913031 94.60869594 293.80173936999995 94.60869594 293.80173936999995 94.60869594 783.02608688 94.60869594 783.02608688 94.60869594 783.02608688 128.83478281 788.32695656 128.83478281 788.32695656 128.83478281 788.32695656 512.83478281 864 512.83478281 864 512.83478281 864 904.34782625 788.32695656 904.34782625 788.32695656 904.34782625 788.32695656 929.39130406 783.02608688 929.39130406 783.02608688 929.39130406 783.02608688 929.39130406 783.02608688 929.39130406 783.02608688ZM512.96 793.16869594C512.96 793.16869594 508.32695656 794.12869594 508.32695656 794.12869594 508.32695656 794.12869594 178.75478281 735.06782625 178.75478281 735.06782625 178.75478281 735.06782625 178.75478281 426.40695656 178.75478281 426.40695656 178.75478281 426.40695656 512.96 426.40695656 512.96 426.40695656 512.96 426.40695656 512.96 793.16869594 512.96 793.16869594 512.96 793.16869594 512.96 793.16869594 512.96 793.16869594ZM845.24521719 426.40695656C845.24521719 426.40695656 512.96 426.40695656 512.96 426.40695656 512.96 426.40695656 512.96-12.939130309999996 512.96-12.939130309999996 534.33043438-7.76347781000004 557.57913031 0.1252171899999439 582.70608687 10.768695940000043 607.79130406 21.412173749999965 632.5843475 33.975652500000024 657.04347781 48.500869689999945 681.5443475 63.02608687999998 705.08521719 79.13739094000005 727.74956563 96.87652218999995 750.41391313 114.61565250000001 770.40695656 133.69043437000005 787.8956525 154.01739094000004 805.34260906 174.30260906 819.24173937 195.42260906 829.63478281 217.37739094000005 840.06956562 239.29043437999997 845.24521719 261.57913031 845.24521719 284.15999999999997 845.24521719 284.15999999999997 845.24521719 426.40695656 845.24521719 426.40695656 845.24521719 426.40695656 845.24521719 426.40695656 845.24521719 426.40695656Z"  horiz-adv-x="1024" />

    
    <glyph glyph-name="about" unicode="&#58913;" d="M463.99957 111.64778899999999c0-26.509985 21.490445-48.00043 48.00043-48.00043s48.00043 21.490445 48.00043 48.00043c0 26.509985-21.490445 48.00043-48.00043 48.00043S463.99957 138.15777400000002 463.99957 111.64778899999999zM512-64c-247.039484 0-448 200.960516-448 448S264.960516 832 512 832 960 631.039484 960 384 759.039484-64 512-64zM512 767.712727c-211.584464 0-383.712727-172.128262-383.712727-383.712727 0-211.551781 172.128262-383.712727 383.712727-383.712727 211.551781 0 383.712727 172.159226 383.712727 383.712727C895.712727 595.584464 723.551781 767.712727 512 767.712727zM512 222.30474400000003c-17.664722 0-32.00086 14.336138-32.00086 31.99914l0 54.112297c0 52.352533 39.999785 92.352318 75.32751 127.647359 25.887273 25.919957 52.67249 52.67249 52.67249 74.016718 0 53.343368-43.07206 96.735385-95.99914 96.735385-53.823303 0-95.99914-41.535923-95.99914-94.559333 0-17.664722-14.336138-31.99914-32.00086-31.99914s-32.00086 14.336138-32.00086 31.99914c0 87.423948 71.775299 158.559333 160.00086 158.559333s160.00086-72.095256 160.00086-160.735385c0-47.904099-36.32028-84.191695-71.424378-119.295794-27.839699-27.776052-56.575622-56.511974-56.575622-82.3356l0-54.112297C544.00086 236.67184499999996 529.664722 222.30474400000003 512 222.30474400000003z"  horiz-adv-x="1024" />

    
    <glyph glyph-name="delete" unicode="&#58983;" d="M805.753 623.928l1.285-629.906c0-33.015-13.635-50.69-46.795-50.69l-481.106 1.295c-33.127 0-47.712 15.085-47.712 48.1L231.425 623.928l-74.537 0 0-631.431c0-66.255 53.885-120.1 120.132-120.1l480.359 0c66.25 0 120.18 53.845 120.18 120.1L877.559 623.928 805.753 623.928zM331.932 488.786l0-447.134c0-2.92 0.425-5.73 1.16-8.415 22.005 0.02 44.002 0.07 66.015 0.16 0.723 2.625 1.122 5.395 1.122 8.255L400.229 488.584C377.467 488.686 354.697 488.749 331.932 488.786zM633.448 487.164l0-445.511c0-2.32 0.26-4.6 0.755-6.79 22.26 0.09 44.51 0.175 66.765 0.215 0.465 2.12 0.695 4.33 0.695 6.575L701.663 486.976C678.928 487.006 656.203 487.076 633.448 487.164zM937.568 744.955l-201.96 0L735.608 820.21c1.22 60.592-48.685 75.2-98.525 75.2L397.361 895.41c-61.877 0-97.187-23.267-97.187-73.12l-0.247-77.327L93.762 744.963l0-73.497 843.805 0L937.567 744.955 937.568 744.955zM667.348 744.955L367.074 744.955 367.074 797.583c0 16.672 11.75 31.205 28.475 31.205l240.214-1.293c16.69 0 31.37-11.98 31.37-28.652L667.348 744.955 667.348 744.955zM485.089 487.121l0-445.499c0-2.355 0.27-4.63 0.753-6.79 22.055 0.095 44.107 0.155 66.157 0.205 0.47 2.115 0.715 4.31 0.715 6.585L552.714 486.929C530.164 486.969 507.644 487.021 485.089 487.121z"  horiz-adv-x="1024" />

    
    <glyph glyph-name="line" unicode="&#59019;" d="M570.752-17.408000000000015L431.36 636.4159999999999l-99.968-272h-233.728c-11.392 0-20.736 9.216-20.736 20.736s9.216 20.608 20.736 20.608H302.592L442.112 785.408l125.696-589.312L619.52 480l90.368-160.64 59.136 115.712h157.312c11.392 0 20.736-9.216 20.736-20.736s-9.216-20.736-20.736-20.736h-131.84L711.68 231.808l-71.936 128-68.992-377.216z"  horiz-adv-x="1024" />

    
    <glyph glyph-name="unlock" unicode="&#58946;" d="M591 254.5v-8c0-28.4-15.8-53.1-39-65.8v-58c0-22.1-17.9-40-40-40s-40 17.9-40 40v58c-23.2 12.7-39 37.4-39 65.8v8c0 41.4 33.6 75 75 75h8c41.4 0 75-33.6 75-75z m275.1 157v-390c0-46.9-38.1-85-85-85H242.9c-46.9 0-85 38.1-85 85v390c0 46.9 38.1 85 85 85H289v112c0 59.6 23.2 115.6 65.3 157.7S452.4 831.5 512 831.5s115.6-23.2 157.7-65.3S735 668.1 735 608.5c0-17.9-14.6-32.5-32.5-32.5S670 590.6 670 608.5c0 87.1-70.9 158-158 158s-158-70.9-158-158v-112h427.1c47 0 85-38.1 85-85z m-65 0c0 11-9 20-20 20H242.9c-11 0-20-9-20-20v-390c0-11 9-20 20-20h538.3c11 0 20 9 20 20v390z"  horiz-adv-x="1024" />

    
    <glyph glyph-name="mysql" unicode="&#58974;" d="M836.11420445-178.73578666999992c-156.70385778 0-283.69806222 126.99420445-283.69806223 283.69806222s126.99420445 283.69806222 283.69806223 283.69806223c156.70385778 0 283.69806222-126.99420445 283.69806222-283.11552 0-157.2864-126.99420445-284.28060445-283.69806222-284.28060445z m0 519.62766222c-130.48945778 0-236.51214222-106.02268445-236.51214223-236.51214222 0-130.48945778 106.02268445-236.51214222 236.51214223-236.51214222 130.48945778 0 236.51214222 106.02268445 236.51214222 236.51214222 0 131.072-106.02268445 236.51214222-236.51214222 236.51214222z m79.22574222-349.52533333c-71.07015111 26.2144-65.24472889 29.12711111-75.14794667 35.53507556-19.22389333 15.14609778-34.36999111 34.36999111-44.85575111 56.50659555 13.98101333-30.29219555 1.74762667-12.23338667-5.24288 8.15559112l2.91271111-5.82542223v0.58254223c-0.58254222-1.74762667-1.16508445-4.07779555-1.16508444-6.40796445-2.33016889-9.90321778-0.58254222-22.13660445-9.32067556-26.2144h-2.91271111c-8.15559111 0-15.14609778 5.24288-17.47626667 12.81592889-6.40796445 12.81592889-9.90321778 27.96202667-9.90321777 43.69066666 0 9.90321778 1.16508445 19.80643555 4.07779555 29.12711112 1.16508445 7.57304889 3.49525333 14.56355555 6.99050667 21.55406222-4.07779555-2.33016889-6.40796445 0.58254222-9.32067555 2.33016889-6.40796445 11.06830222-11.65084445 25.04931555-13.98101334 40.19541333-1.74762667-4.07779555-8.73813333 23.30168889-11.06830222 52.4288 8.15559111-48.35100445 7.57304889-44.27320889 6.40796444-40.77795556-6.40796445 13.98101333-15.72864 25.04931555-27.37948444 34.36999112 9.90321778-10.48576 5.24288 0 5.24288 11.65084444 0 1.74762667 0 3.49525333 0.58254222 5.24288 1.74762667 6.40796445 7.57304889 10.48576 14.56355556 10.48576h1.16508444c13.98101333-2.33016889 26.2144-8.15559111 36.11761778-16.89372444 4.07779555-4.07779555 13.98101333-10.48576 25.04931556-13.98101334-16.31118222 9.90321778-11.06830222 9.90321778-6.40796445 9.32067556 12.81592889-2.33016889 23.88423111-7.57304889 33.78744889-14.56355556 36.11761778-20.38897778 68.73998222-63.49710222 79.80828444-115.34336 0 4.66033778 5.82542222-8.15559111 11.06830222-19.80643555 5.82542222-15.14609778 14.56355555-27.96202667 25.04931556-39.03032889-13.98101333 20.38897778-9.90321778 18.64135111-5.82542222 18.05880889 21.55406222-10.48576 42.52558222-26.2144 60.00184889-44.85575111-8.15559111 9.90321778 20.97152-22.71914667 41.36049777-60.58439112-49.51608889 66.40981333-47.18592 61.16693333-43.69066666 57.08913778v-1.74762666c-2.91271111-1.16508445-6.40796445-1.74762667-9.32067556-2.91271112-6.99050667-1.74762667-12.81592889-1.74762667-19.22389333-3.49525333-8.15559111-2.91271111-16.89372445-4.66033778-26.2144-4.66033777 13.39847111 1.16508445 13.39847111 1.16508445 13.98101333 1.16508444 7.57304889-11.06830222 19.22389333-19.22389333 32.03982222-23.30168889 4.07779555-6.99050667 15.14609778-22.13660445 21.55406223-39.03032889l-6.40796445 15.72864c1.16508445-1.74762667 1.74762667-4.66033778 2.91271112-6.40796444v-0.58254222c-24.46677333 3.49525333-47.18592 10.48576-67.57489778 19.80643555 15.72864-8.73813333-11.06830222 0-12.23338667 0.58254222z m-128.74183111 245.83281778c-2.33016889 2.91271111-5.24288 4.66033778-8.73813334 4.66033778h1.16508445-1.16508445c-6.40796445 1.16508445-13.39847111-5.82542222-6.99050666-9.90321778 7.57304889-9.32067555 12.23338667-20.38897778 13.98101333-33.20490667 2.91271111 14.56355555 6.99050667 20.38897778 6.99050667 26.79694222-1.16508445 4.66033778-2.91271111 8.73813333-5.24288 11.65084445z m212.04536889 195.15164445c-22.71914667-22.13660445-50.09863111-39.61287111-80.97336889-50.09863112 27.96202667 55.34151111-12.23338667 70.48760889-54.75896889 76.89557334 113.59573333 5.82542222 135.73233778 36.11761778 135.73233778 65.82727111V674.6885688899999c-74.56540445-72.81777778-235.9296-122.33386667-427.58599111-122.33386667s-352.43804445 49.51608889-427.58599112 122.33386667v-149.71335111c0-80.97336889 168.35470222-166.60707555 419.4304-168.35470223-34.36999111-37.86524445-60.58439111-83.88608-74.56540444-134.56725333-132.23708445 96.70200889-275.54247111 143.88792889-344.28245333 210.88028445v-149.71335112c0-71.07015111 130.48945778-146.21809778 333.79669333-164.27690666 1.16508445-21.55406222 3.49525333-41.36049778 8.15559111-60.58439111-154.95623111 27.37948445-279.03772445 72.23523555-341.95228444 133.40216889v-149.71335112c0-81.55591111 171.84995555-168.93724445 427.58599111-168.93724444 11.65084445 0 22.71914667 0.58254222 33.78744889 0.58254222 40.19541333-31.45728 88.54641778-54.17642667 141.55776-64.07964444-103.69251555 19.80643555-139.22759111 18.05880889-175.34520889 18.05880889-264.47416889 0-471.8592 94.37184-471.8592 214.37553777V746.34126222c0.58254222 5.24288 1.16508445 10.48576 2.33016889 15.72864-1.16508445-2.33016889-2.33016889 1.16508445-2.33016889 4.66033778 0 6.40796445 2.91271111 12.23338667 6.99050666 16.31118222C142.88896 884.98631111 333.96280889 960.7168 571.05749334 960.7168s428.16853333-75.73048889 465.45123555-177.67537778c4.07779555-4.07779555 6.99050667-9.90321778 6.99050667-16.31118222 0-3.49525333-0.58254222-6.40796445-1.16508444-9.90321778 0.58254222-3.49525333 1.16508445-6.40796445 1.16508444-10.48576v-381.56515555a332.63160889 332.63160889 0 0 1-129.90691556 81.55591111l85.05116445-13.98101333zM571.05749334 915.27850667C325.80721778 915.27850667 158.6176 834.88768 145.21912889 756.82702222c13.39847111-78.6432 181.17063111-159.03402667 425.83836445-159.03402667S984.07992889 678.18382222 997.4784 756.82702222c-13.39847111 78.06065778-181.17063111 158.45148445-426.42090666 158.45148445z"  horiz-adv-x="1220" />

    
    <glyph glyph-name="users" unicode="&#58910;" d="M888.96875 163.78125c-2.90625 10.96875-7.21875 21.28125-12.75 30.84375l24.28125 36.5625-0.09375 0.09375-34.5 34.5-0.09375 0.09375-36.5625-24.28125c-9.5625 5.53125-19.875 9.84375-30.75 12.75l-8.71875 43.03125h-48.9375l-8.71875-43.03125c-10.875-2.90625-21.1875-7.21875-30.75-12.75L664.8125 265.875l-0.09375-0.09375-34.5-34.5-0.09375-0.09375 24.28125-36.5625c-5.53125-9.5625-9.84375-19.875-12.75-30.84375l-43.03125-8.71875v-48.9375l43.03125-8.71875c2.90625-10.875 7.21875-21.28125 12.75-30.84375l-24.28125-36.5625 0.09375-0.09375 34.5-34.5 0.09375-0.09375 36.5625 24.28125c9.5625-5.53125 19.875-9.84375 30.75-12.75l8.71875-43.03125h48.9375l8.71875 43.03125c10.875 2.90625 21.1875 7.21875 30.75 12.75l36.5625-24.28125 0.09375 0.09375 34.5 34.5 0.09375 0.09375-24.28125 36.5625c5.53125 9.5625 9.84375 19.875 12.75 30.84375l43.03125 8.71875v48.9375l-43.03125 8.71875zM765.40625 72.75c-31.96875 0-57.84375 25.96875-57.84375 57.9375 0 31.96875 25.875 57.9375 57.84375 57.9375s57.84375-25.96875 57.84375-57.9375c0-32.0625-25.875-57.9375-57.84375-57.9375zM579.3125 125.25c0 53.625 18.09375 102.9375 48.46875 142.3125-6.09375 4.40625-11.15625 8.71875-15.1875 12.84375-6.28125 6.5625-10.6875 13.125-13.125 19.78125-2.4375 6.65625-3.65625 13.3125-3.65625 20.53125 0 7.03125 0.28125 14.71875 0.75 23.0625 1.125 13.125 5.34375 23.25 12.65625 30.28125 7.3125 7.03125 15.5625 14.4375 25.03125 22.125 4.5 3.84375 8.15625 9.09375 11.53125 16.03125 3.375 6.84375 6.28125 13.78125 9 20.8125 2.71875 8.15625 5.4375 16.6875 8.15625 25.3125 3.84375 1.125 7.6875 2.90625 11.53125 5.8125 3.375 2.71875 6.84375 6.5625 10.6875 11.53125 3.84375 4.96875 7.03125 12 9.9375 21.28125 2.71875 9.09375 3.65625 17.625 2.71875 25.03125-0.75 7.3125-2.25 13.78125-4.5 19.21875-2.0625 6.09375-5.4375 11.71875-9.9375 17.34375 0.46875 20.71875-0.46875 41.53125-3.375 62.34375-2.0625 17.4375-6.09375 36.09375-11.90625 55.78125-5.8125 19.6875-14.0625 37.5-25.03125 53.25-10.40625 14.71875-21.9375 26.90625-34.78125 36.5625-12.84375 9.5625-25.78125 17.15625-38.90625 22.59375-13.125 5.4375-26.25 9.09375-39.75 11.53125-13.3125 1.96875-26.15625 3.28125-38.71875 3.28125v-0.1875c-2.0625 0.09375-4.125 0.1875-6.1875 0.1875-12.65625 0-25.59375-1.21875-38.90625-3.375-13.40625-2.4375-26.53125-6.09375-39.75-11.53125-13.125-5.4375-26.0625-12.9375-38.90625-22.59375-12.84375-9.5625-24.375-21.75-34.78125-36.5625-10.875-15.65625-19.21875-33.46875-25.03125-53.25-5.8125-19.78125-9.75-38.34375-11.90625-55.78125-2.90625-20.8125-3.84375-41.71875-3.375-62.34375-4.5-5.625-7.78125-11.25-9.9375-17.34375-2.25-5.4375-3.65625-11.90625-4.5-19.21875-0.9375-7.40625 0-15.84375 2.71875-25.03125 2.90625-9.28125 6.09375-16.3125 9.9375-21.28125 3.84375-4.96875 7.3125-8.8125 10.6875-11.53125 3.84375-2.90625 7.6875-4.6875 11.53125-5.8125 2.71875-8.625 5.4375-17.15625 8.15625-25.3125 2.71875-7.03125 5.625-13.96875 9-20.8125 3.375-6.84375 7.03125-12.1875 11.53125-16.03125 9.46875-7.6875 17.625-15.09375 25.03125-22.125 7.3125-7.03125 11.53125-17.15625 12.65625-30.28125 0.46875-8.34375 0.75-16.03125 0.75-23.0625 0-7.21875-1.21875-13.96875-3.65625-20.53125-2.4375-6.5625-6.84375-13.125-13.125-19.78125-6.28125-6.5625-15.09375-13.40625-26.53125-20.53125-14.15625-9.28125-30.65625-16.3125-49.5-21.28125-18.9375-4.96875-101.25-33.375-119.0625-39.46875-17.625-5.90625-33.1875-14.15625-46.3125-24.5625-12.9375-10.21875-21.1875-25.6875-24.5625-45.84375-5.4375-34.96875-6.5625-40.59375-3.65625-63 2.90625-22.21875 7.3125-35.625 13.40625-40.03125 4.96875-3.65625 19.03125-8.15625 42.65625-13.5 23.4375-5.25 170.71875-33 342-33.1875v0.09375c47.53125 0.28125 93 2.625 134.4375 6-29.0625 39.09375-46.40625 87.65625-46.40625 140.25z"  horiz-adv-x="1024" />

    
    <glyph glyph-name="resource" unicode="&#58941;" d="M904.26629638 438.15161133H121.35858154c-16.12765503 0-29.19589234-13.05175781-29.19589233-29.21319581V187.91052246000004c0-16.16143799 13.06823731-29.23049927 29.19589233-29.23049926H485.05603027v-73.7506714c-10.84020996-8.64678955-17.95523071-21.78094482-17.95523071-36.71136474 0-25.98733521 21.16461182-47.15194703 47.18408203-47.15194702 25.98651123 0 47.11981201 21.16625977 47.11981201 47.15194702 0 14.93041992-7.09936523 28.09918213-17.9230957 36.74432373v73.72018433h360.78717041c16.12765503 0 29.22885132 13.06741333 29.22885132 29.23049926V408.94006347c-0.00164795 16.15979003-13.10202026 29.21154785-29.23132325 29.21154786z m-29.21237182-221.04437256H150.58496094V379.74417114000005h724.46896362v-162.63693237zM777.27615357 249.72674559999996c25.97085571 0 47.11816406 21.14813232 47.11816406 47.15112305 0 26.00463867-21.14730835 47.13711548-47.11816406 47.13711548-26.00381469 0-47.18408203-21.1324768-47.18408204-47.13711548 0.00082398-26.00299073 21.18109131-47.15112305 47.18408204-47.15112305z m0 59.23965455c6.6494751 0 12.07040406-5.40362549 12.07040405-12.0885315 0-6.6494751-5.42092896-12.06793213-12.07040405-12.06793212-6.68243408 0-12.10336304 5.41845703-12.10336305 12.06793212 0 6.68490601 5.42092896 12.08853149 12.10336305 12.0885315zM904.26629638 764.45709229H121.35858154c-16.12765503 0-29.19589234-13.08389282-29.19589233-29.21237183v-221.04519653c0-16.14413452 13.06823731-29.22720337 29.19589233-29.22720338h782.90853882c16.12847901 0 29.23049927 13.08306885 29.23049927 29.22720338V735.24389648c-0.00164795 16.12847901-13.10202026 29.2131958-29.23132325 29.21319581z m-29.21237182-221.04437256H150.58496094v162.60314941h724.46896362v-162.60314941zM777.27615357 576.03222656c25.97085571 0 47.11816406 21.14813232 47.11816406 47.152771 0 26.00299073-21.14730835 47.15112305-47.11816406 47.15112304-26.00381469 0-47.18408203-21.14813232-47.18408204-47.15112304 0.00082398-26.00463867 21.18109131-47.15277099 47.18408204-47.152771z m0 59.22317505c6.6494751 0 12.07040406-5.42010498 12.07040405-12.07122802 0-6.65194703-5.42092896-12.10418701-12.07040405-12.10418702-6.68243408 0-12.10336304 5.45471192-12.10336305 12.10418702s5.42092896 12.07122802 12.10336305 12.07122802zM898.6484375 77.44683838000003h-70.11117554c-16.14660645 0-29.21401977-13.06741333-29.21401977-29.22885132 0-16.12765503 13.06741333-29.19671631 29.21401977-29.19671631h70.11117554c16.14578247 0 29.22885132 13.06823731 29.22885132 29.19671631 0 16.16143799-13.0847168 29.22885132-29.22885132 29.22885132zM723.34042359 77.44683838000003h-70.11282349c-16.14248657 0-29.20825195-13.06741333-29.20825195-29.22885132 0-16.12765503 13.06576538-29.19671631 29.20825195-29.19671631h70.11282349c16.14578247 0 29.22885132 13.06823731 29.22885131 29.19671631 0 16.16143799-13.08306885 29.22885132-29.22885131 29.22885132zM372.76312256 77.44683838000003h-70.12930298c-16.16143799 0-29.22885132-13.06741333-29.22885132-29.22885132 0-16.12765503 13.06658935-29.19671631 29.22885132-29.19671631h70.12930298c16.12683105 0 29.19424438 13.06823731 29.19424439 29.19671631-0.00082398 16.16143799-13.06741333 29.22885132-29.19424439 29.22885132zM197.45510864 77.44683838000003H127.32580567c-16.16061401 0-29.21237182-13.06741333-29.21237184-29.22885132 0-16.12765503 13.05175781-29.19671631 29.21237183-29.19671631h70.12930298c16.12765503 0 29.2131958 13.06823731 29.21319581 29.19671631 0 16.16143799-13.0847168 29.22885132-29.21319581 29.22885132z"  horiz-adv-x="1024" />

    
    <glyph glyph-name="times" unicode="&#59040;" d="M581.828368 384.840134L946.816107 749.827873c18.522865 18.526959 18.522865 48.557926 0 67.074651l-1.974981 1.974981c-18.516726 18.522865-48.552809 18.522865-67.074652 0L512.777713 453.895907 147.788951 818.882622c-18.526959 18.522865-48.557926 18.522865-67.075675 0l-1.974981-1.974981c-18.522865-18.516726-18.522865-48.552809 0-67.074652l364.982622-364.992855L78.733179 19.851372999999967c-18.522865-18.521842-18.522865-48.557926 0-67.075675l1.974981-1.974981c18.522865-18.522865 48.553833-18.522865 67.075675 0l364.992854 364.987738L877.765451-49.19928300000004c18.521842-18.522865 48.557926-18.522865 67.074651 0l1.974981 1.974981c18.522865 18.517749 18.522865 48.552809 0 67.075675L581.828368 384.840134z"  horiz-adv-x="1024" />

    
    <glyph glyph-name="home" unicode="&#58982;" d="M813.35540417 0.3455578099999457H191.11648198c-16.57756031 0-30.06505594 13.48749562-30.06505594 30.06505594V382.21081313c0 10.59601594 8.59097531 19.18699125 19.18699125 19.18699125 10.596975 0 19.18699125-8.59097531 19.18699125-19.18699125v-343.49127282h605.62010907V382.21081313c0 10.59601594 8.59001625 19.18699125 19.18699125 19.18699125s19.18699125-8.59097531 19.18699125-19.18699125v-351.80019938c0-16.57851937-13.48749562-30.06505594-30.06409594-30.06505594zM98.64669636 428.20490906c-5.52585375 0-11.00949562 2.37439031-14.80372313 6.96775594-6.74902406 8.16982125-5.596845 20.26338188 2.57297532 27.01240594l405.80486437 335.23031344c8.16694312 6.747105 20.26146281 5.597805 27.01144594-2.57297532 6.74902406-8.16982125 5.596845-20.26338188-2.57297532-27.01240593l-405.80486437-335.23031344a19.10064937 19.10064937 0 0 0-12.20772281-4.39478063zM910.23531917 428.20490906a19.11024281 19.11024281 0 0 0-12.20964188 4.39478063l-405.80486437 335.23031344c-8.16982125 6.74902406-9.32199938 18.84258469-2.57297531 27.01240593 6.75094312 8.16886125 18.84354375 9.31912125 27.012405 2.57297532l405.80486437-335.23031344c8.16982125-6.74902406 9.32199938-18.84258469 2.57297625-27.01240594-3.79326844-4.59240656-9.27786938-6.96775594-14.80276406-6.96775594zM580.60472886 1.3288912499999697H423.86715636c-13.57863375 0-24.62554406 11.04786938-24.62554313 24.62650312V229.00748531c0 13.57863375 11.04691031 24.62554406 24.62554313 24.62554313h156.7375725c13.57863375 0 24.62554406-11.04691031 24.62554406-24.62554313v-203.05209093c0-13.57863375-11.04691031-24.62650312-24.62554406-24.62650313z m-142.99009313 38.3739825h129.24069469V215.25904593999996H437.61463573v-175.55617219z"  horiz-adv-x="1024" />

    
    <glyph glyph-name="memory" unicode="&#59162;" d="M920 336h-72V432h72c13.152 0 24 10.752 24 24 0 13.152-10.848 24-24 24h-72V672c0 26.4-21.6 48-48 48H608V792c0 13.152-10.848 24-24 24-13.248 0-24-10.848-24-24v-72H464V792c0 13.152-10.848 24-24 24-13.248 0-24-10.848-24-24v-72H224c-26.4 0-48-21.6-48-48v-192H104c-13.248 0-24-10.848-24-24 0-13.248 10.752-24 24-24h72v-96H104c-13.248 0-24-10.752-24-24s10.752-24 24-24h72v-192c0-26.4 21.6-48 48-48h192v-72c0-13.248 10.752-24 24-24 13.152 0 24 10.752 24 24v72h96v-72c0-13.248 10.752-24 24-24 13.152 0 24 10.752 24 24v72h192c26.4 0 48 21.6 48 48V288h72c13.152 0 24 10.752 24 24s-10.848 24-24 24zM800 96H224V672h576v-576zM608 528H416c-26.4 0-48-21.6-48-48v-192c0-26.4 21.6-48 48-48h192c26.4 0 48 21.6 48 48V480c0 26.4-21.6 48-48 48z m0-240H416V480h192v-192z"  horiz-adv-x="1024" />

    
    <glyph glyph-name="refresh" unicode="&#59006;" d="M867.00000029 593.99999971V721.5c0 22.5 15.00000029 37.50000029 37.49999942 37.50000029s37.50000029-15.00000029 37.50000029-37.50000029v-225c0-7.49999971-7.49999971-22.5-7.49999971-22.5-7.49999971-7.49999971-22.5-15.00000029-30.00000058-15.00000029h-225c-22.5 0-37.50000029 15.00000029-37.49999942 37.50000029s15.00000029 37.50000029 37.49999942 37.50000029h135c-15.00000029 29.99999971-29.99999971 52.49999971-52.49999971 74.99999971-67.5 67.5-157.5 105.00000029-254.99999971 105.00000029-195.00000029 0-352.50000029-157.5-352.50000029-352.50000029S312 8.999999709999997 507.00000029 8.999999709999997c142.49999971 0 270 82.50000029 322.49999971 217.50000029 7.49999971 22.5 29.99999971 29.99999971 52.49999971 22.5s29.99999971-29.99999971 22.5-52.49999971c-74.99999971-157.5-225-262.50000029-397.49999942-262.50000029C267-66 79.50000029 129.00000029 79.50000029 361.5S267 789 507.00000029 789c119.99999971 0 232.49999971-45 307.49999942-135 22.5-15.00000029 37.50000029-37.50000029 52.50000058-60.00000029z"  horiz-adv-x="1024" />

    
    <glyph glyph-name="plus" unicode="&#58984;" d="M470.674286 451.291429H39.497143v-81.115429h431.104v-431.030857h81.115428V370.102857h431.030858v81.188572H551.789714V882.322286h-81.188571V451.291429z"  horiz-adv-x="1024" />

    
    <glyph glyph-name="file" unicode="&#58917;" d="M853.333333-93.866667H170.666667a68.266667 68.266667 0 0 0-68.266667 68.266667V793.6a68.266667 68.266667 0 0 0 68.266667 68.266667h512.6144L921.6 621.499733V-25.600000000000023a68.266667 68.266667 0 0 0-68.266667-68.266667z m0 681.301334L649.4208 793.6H204.8a34.133333 34.133333 0 0 1-34.133333-34.133333v-750.933334a34.133333 34.133333 0 0 1 34.133333-34.133333h614.4a34.133333 34.133333 0 0 1 34.133333 34.133333V587.434667zM614.4 622.933333V861.866667h68.266667v-204.8a34.133333 34.133333 0 0 1 34.133333-34.133334h204.8v-68.266666h-238.933333a68.266667 68.266667 0 0 0-68.266667 68.266666zM273.066667 622.933333h204.8v-68.266666H273.066667zM273.066667 418.133333h477.866666v-68.266666H273.066667zM273.066667 213.33333300000004h477.866666v-68.266666H273.066667z"  horiz-adv-x="1024" />

    
    <glyph glyph-name="apps" unicode="&#58880;" d="M360.76056704 805.87117923H212.70699237A123.69637354 123.69637354 0 0 1 90.125 683.28918686V535.23561218a123.69637354 123.69637354 0 0 1 122.58199237-122.58199155h270.63556705v270.63556623A121.62680804 121.62680804 0 0 1 360.76056704 805.87117923z m62.08698285-331.13057575H214.2989657a62.08698284 62.08698284 0 0 0-62.08698285 62.08698285V684.88116101a62.08698284 62.08698284 0 0 0 62.08698285 62.08698284h148.0535755A62.08698284 62.08698284 0 0 0 424.43952404 684.88116101v-210.14055753zM811.28918686 805.87117923H663.23561218a123.69637354 123.69637354 0 0 1-122.58199155-122.58199237v-270.63556623h270.63556623A123.69637354 123.69637354 0 0 1 933.87117923 535.23561218V683.28918686A121.62680804 121.62680804 0 0 1 811.28918686 805.87117923z m62.08698367-270.63556705a62.08698284 62.08698284 0 0 0-62.08698367-62.08698285H602.74060348V683.28918686a62.08698284 62.08698284 0 0 0 62.08698285 62.08698367h148.05357468a62.08698284 62.08698284 0 0 0 62.08698284-62.08698367V535.23561218zM90.125 232.76056703999996v-148.05357467A123.69637354 123.69637354 0 0 1 212.70699237-37.875H360.76056704a123.69637354 123.69637354 0 0 1 122.58199238 122.58199237v270.63556705h-270.63556705A123.69637354 123.69637354 0 0 1 90.125 232.76056703999996z m332.72254989-148.05357467a62.08698284 62.08698284 0 0 0-62.08698285-62.08698368H212.70699237a62.08698284 62.08698284 0 0 0-62.08698367 62.08698368V232.76056703999996a62.08698284 62.08698284 0 0 0 62.08698367 62.08698285h208.54858338v-210.14055752zM811.28918686 355.34255942000004h-270.63556623v-270.63556705A123.69637354 123.69637354 0 0 1 663.23561218-37.875h148.05357468a123.69637354 123.69637354 0 0 1 122.58199237 122.58199237V232.76056703999996a122.58199237 122.58199237 0 0 1-122.58199237 122.58199238z m62.08698367-270.63556705a62.08698284 62.08698284 0 0 0-62.08698367-62.08698368H663.23561218a62.08698284 62.08698284 0 0 0-62.08698285 62.08698369V293.25557575000005h208.5485842a62.08698284 62.08698284 0 0 0 62.08698286-62.08698286v-146.46160052z"  horiz-adv-x="1024" />

    
    <glyph glyph-name="setting" unicode="&#59074;" d="M512.33676612-65.99473798999998a456.25823438 456.25823438 0 0 0-52.0347252 2.98265888l-18.03802677 2.07935421-5.49612509 17.30485898c-28.59441153 90.04016602-59.60582051 102.18040401-86.16911221 102.180404-22.57296592 0-51.55851709-9.46277227-88.61329599-28.92942334l-16.26211229-8.54280527-14.33623184 11.48599951a452.93968652 452.93968652 0 0 0-70.14641925 70.14641836l-11.48599951 14.33710899 8.54368242 16.26298945c26.65976133 50.74642002 34.73600537 87.30306563 24.69003135 111.75718535-10.14770566 24.70230879-42.18432099 45.31782305-97.94013487 63.0243457l-17.30485898 5.49612598-2.08023135 18.03714873A455.82675293 455.82675293 0 0 0 62.67967051 383.66323388c0 17.36186396 1.00415918 34.87018535 2.98265889 52.03560235l2.08023135 18.03714962 17.30485898 5.49612509c55.75581386 17.70652266 87.79242919 38.32203604 97.94013486 63.02346856 10.04597403 24.45411972 1.96972998 61.01076533-24.6891542 111.75893964l-8.54368242 16.26211231 11.48599951 14.33623184a452.93968652 452.93968652 0 0 0 70.14641925 70.14641923l14.33623184 11.48687666 16.26298944-8.54368242c37.06004092-19.46928164 66.04471494-28.93205479 88.60978828-28.92942334 26.56592315 0.00263057 57.5799627 12.14549911 86.17261904 102.17952686L442.26489131 828.2574392500001l18.03714961 2.08023135A456.04950908 456.04950908 0 0 0 512.33764326 833.32032949a456.23017002 456.23017002 0 0 0 52.03647862-2.98265889l18.03627246-2.08023135 5.49612597-17.30485898c28.59441153-90.04016602 59.60582051-102.17952685 86.16823506-102.17952685 22.57296592 0 51.55939424 9.46277227 88.61417226 28.92854619l16.26211231 8.54368242 14.33623272-11.48599951a452.79235107 452.79235107 0 0 0 70.1472955-70.14641925l11.48599952-14.33623184-8.54280528-16.26298944c-26.65888418-50.74729717-34.73512823-87.30306563-24.6891542-111.7580625 10.14770566-24.70230879 42.18432099-45.31782305 97.94101201-63.02434482l17.30485812-5.49612598 2.07935506-18.03802676a456.31523847 456.31523847 0 0 0 2.98178174-52.03472519c0-17.36010967-1.00415918-34.86755391-2.98265888-52.03560147l-2.0793542-18.03714961-17.30485898-5.49612597c-55.75581386-17.70652266-87.79242919-38.32203604-97.94013487-63.02346856-10.04597403-24.45411972-1.96972998-61.01076533 24.6891542-111.75893876l8.54280528-16.26211231-11.48599952-14.33623272a452.83620058 452.83620058 0 0 0-70.1472955-70.14729551l-14.33623272-11.48599951-16.26211231 8.54280528C725.63327158 49.08976494000001 696.64772128 58.55253807999998 674.07563164 58.55253807999998c-26.56416885 0-57.57470068-12.13935997-86.16998847-102.180404l-5.49612598-17.30485898-18.03802588-2.07847705a456.08108115 456.08108115 0 0 0-52.03472519-2.98353604zM484.27469053-8.87958309999999a400.63923193 400.63923193 0 0 1 56.12415117 0c13.31190176 37.14423222 28.60230411 64.91076065 46.51053574 84.5387789 23.62272891 25.89151377 52.94855391 39.02012402 87.1662542 39.02012402 28.25501484 0 59.65230058-8.58051563 97.77701338-26.84919199a396.98216367 396.98216367 0 0 1 36.32862745 36.33125889c-28.11557198 58.93404258-33.93267803 104.45445088-18.41162609 142.23713555 9.18476543 22.35722519 25.33900693 41.14157431 49.38620099 57.42473378 17.36624883 11.75962148 38.98065937 22.22216807 65.72373573 31.78491856a400.17880987 400.17880987 0 0 1 0.987496 28.05418213c0 9.33736201-0.33062695 18.72120498-0.987496 28.054183-26.74307549 9.56274961-48.35836318 20.02529619-65.72373573 31.78491768-24.04719404 16.2840375-40.20143555 35.06838575-49.38620099 57.42561182-15.52105195 37.78180752-9.70306875 83.3022167 18.41162608 142.23713555a397.08389531 397.08389531 0 0 1-36.32862744 36.33038086c-38.12558994-18.26867637-69.52199854-26.849192-97.77788965-26.85006827-34.22120889 0-63.54878818 13.12685596-87.16800938 39.01661543-17.90560019 19.62626396-33.19600254 47.39454668-46.50790429 84.5422875a400.10601885 400.10601885 0 0 1-56.12415118 0c-13.31190176-37.14423222-28.60230411-64.90813008-46.51141289-84.53790176-23.62009747-25.8888832-52.94504531-39.01749346-87.16186933-39.02187832h-0.01754033c-28.24712138-0.00087714-59.63826885 8.58051563-97.7638588 26.85006914a397.08389531 397.08389531 0 0 1-36.32862743-36.33038174c28.11557198-58.93491885 33.93355518-104.45532803 18.41250322-142.23801269-9.18476543-22.35722519-25.33900693-41.14157431-49.38620098-57.42473379-17.36537168-11.75962148-38.98065937-22.22216807-65.72461201-31.78491855a400.65501797 400.65501797 0 0 1-0.98661885-28.05418213c0-9.33736201 0.33062695-18.72295929 0.98661885-28.05418301 26.74395263-9.56274961 48.35924033-20.02529619 65.72461201-31.78491855 24.04719404-16.2840375 40.20143555-35.06838575 49.38620098-57.42561094 15.52105195-37.78180752 9.70219248-83.30133955-18.41250322-142.2362584a397.09354219 397.09354219 0 0 1 36.32862743-36.33125889c38.12558994 18.26867637 69.52287568 26.85006914 97.77789054 26.85006914 34.22120889 0 63.54791104-13.1277331 87.16800937-39.01749258 17.90647734-19.62538682 33.19600254-47.39279239 46.50878144-84.54141034zM512.33764326 205.34302939999998c-98.32601162 0-178.3202045 79.994192-178.32020449 178.32020448s79.994192 178.3202045 178.32020449 178.3202045S690.65784777 481.98924638 690.65784777 383.66323388s-79.994192-178.3202045-178.32020451-178.32020448z m0 300.5127501c-67.37686963 0-122.19254471-54.8156751-122.1925456-122.19254562s54.8156751-122.19254471 122.1925456-122.19254472S634.53018799 316.28636425 634.53018799 383.66323388s-54.8156751 122.19254471-122.19254473 122.19254562z"  horiz-adv-x="1026" />

    
    <glyph glyph-name="website" unicode="&#58927;" d="M960.66933594 815.92529297H121.42988281a54.14589844 54.14589844 0 0 1-1.50205078 0.01933594c-15.52851562 0-29.66835937-5.95019531-40.26445312-15.69550782C68.89677734 790.35351563 62.11425781 776.18466797 62 760.43466797l0.00351562-536.26113281c0.25224609-15.74121094 7.12617188-29.82919922 17.95078126-39.63515625 10.30253906-9.47900391 24.440625-15.43007812 39.97001953-15.43007813 0.52910156 0 1.0546875 0.00615234 1.58115234 0.02021485l387.26367188-0.00087891v-157.82255859H270.44228516a30.79951172 30.79951172 0 0 1-0.56953125 0.00527343c-17.240625 0-31.26181641-13.78476562-31.64677735-30.93398437 0-17.11230469 14.38769531-30.99902344 32.27695313-30.99902344h541.08457031c0.18808594-0.00351562 0.41132812-0.00615234 0.6328125-0.00615234 17.24238281 0 31.26445313 13.78740234 31.64765625 30.93574218-0.38232422 17.21953125-14.40351562 31.00605469-31.64765625 31.00605469-0.22148437 0-0.44296875-0.00263672-0.66621094-0.00527344H573.32216797V169.12851563000004h387.34189453c0.44648437-0.01318359 0.97207031-0.01933594 1.50029297-0.01933594 15.53027344 0 29.67011719 5.95019531 40.26357422 15.69726562 10.75341797 9.87890625 17.53242188 24.02050781 17.66601562 39.74589844l-0.00615234 536.26640625c-0.25048828 15.74296875-7.12617188 29.83007813-17.95253906 39.63779297-10.29990234 9.47724609-24.43886719 15.42919922-39.96914063 15.42919922-0.52822266 0-1.05644531-0.00703125-1.58203125-0.02197266l0.08525391 0.06152344z m-5.13017578-586.74902344H126.55917969V753.9984375h828.97998047v-524.82128906zM335.68701172 585.66679688h411.35097656c13.134375 0 23.89658203 10.25859375 23.89658203 22.89550781-0.27773438 12.70634766-10.64355469 22.90078125-23.38945312 22.90078125-0.17753906 0-0.35507812-0.00263672-0.53173828-0.00703125l-411.32285157 0.00175781a24.30703125 24.30703125 0 0 1-0.50625 0.00527344c-12.74677734 0-23.11259766-10.19443359-23.38769531-22.87529297-0.00087891-12.66064453 10.69628906-22.92011719 23.89482422-22.92011719h-0.00439453z m309.32490234-79.19208985H437.08466797a24.38964844 24.38964844 0 0 1-0.5053711 0.00527344c-12.74677734 0-23.10996094-10.19443359-23.39121093-22.87441406-0.00087891-12.72392578 10.69628906-22.92011719 23.89482422-22.92011719h207.92724609c13.13701172 0 23.89746094 10.19619141 23.89746094 22.89287109-0.27861328 12.70634766-10.6453125 22.89990234-23.39208985 22.89990235-0.17929687 0-0.35507812-0.00087891-0.53261718-0.00527344l0.0290039 0.00175781z"  horiz-adv-x="1090" />

    
    <glyph glyph-name="search" unicode="&#58887;" d="M961.174588-25.178353000000016L918.588235-67.76470600000005l-265.065411 265.065412A359.634824 359.634824 0 0 0 421.647059 112.94117600000004C222.057412 112.94117600000004 60.235294 274.763294 60.235294 474.352941S222.057412 835.764706 421.647059 835.764706s361.411765-161.822118 361.411765-361.411765c0-89.6-32.798118-171.429647-86.799059-234.586353l264.914823-264.944941zM722.823529 474.352941c0 166.339765-134.836706 301.176471-301.17647 301.176471S120.470588 640.692706 120.470588 474.352941s134.836706-301.176471 301.176471-301.17647 301.176471 134.836706 301.17647 301.17647z"  horiz-adv-x="1024" />

    
    <glyph glyph-name="down" unicode="&#59282;" d="M0 657.49504l511.80032-486.21056L1023.60064 657.49504z"  horiz-adv-x="1024" />

    
    <glyph glyph-name="system" unicode="&#58888;" d="M760.76287842-37.875h-497.52410889C167.77554321-37.875 90.125 39.80603027999996 90.125 135.3013916V632.77853393C90.125 728.1956176799999 167.77554321 805.875 263.23959351 805.875h497.52410888C856.22445679 805.875 933.875 728.1956176799999 933.875 632.77853393v-497.47714232C933.875 39.80603027999996 856.22445679-37.875 760.76287842-37.875zM263.23959351 765.70211792c-73.29501343 0-132.93429565-59.63516235-132.93429566-132.92358399v-497.47714232c0-73.2892456 59.6401062-132.99938964 132.93429566-132.99938966h497.52410888c73.29254151 0 132.93264771 59.71014404 132.93264771 132.99938966V632.77853393c0 73.28759766-59.6401062 132.92358398-132.93264771 132.92358399h-497.52410888zM288.01239013 190.40304564999997c-8.36499023 0-16.21911621-3.31567383-22.11795044-9.34304809-12.02261352-12.2961731-12.02261352-32.30310058 0.00494385-44.60092163 5.89471435-6.02243042 13.7496643-9.33975219 22.11300659-9.3397522 8.36251831 0 16.21746826 3.31732177 22.12042237 9.34140015 12.03085328 12.2961731 12.03085328 32.30310058-0.00411987 44.60586547-5.89883422 6.02078247-13.75378417 9.3364563-22.1163025 9.3364563z m8.42349244-40.53295898c-2.26345825-2.31124878-5.25448609-3.58346557-8.4243164-3.58346558-3.16735839 0-6.15756226 1.2722168-8.41442872 3.57687378-4.79718018 4.9067688-4.79718018 12.89108276-0.00411987 17.79290771 2.26098633 2.30960083 5.25119018 3.58099365 8.41854859 3.58099366 3.16900635 0 6.16085815-1.27304078 8.4210205-3.5793457 4.7996521-4.90594482 4.7996521-12.88613891 0.0032959-17.78796387zM787.89553833 582.30761719a9.57870484 9.57870484 0 0 1-6.99389648 5.79171753 9.58282471 9.58282471 0 0 1-8.68798828-2.64248657L688.16741943 500.79922485l-62.90304565 64.26919556 84.0602417 84.68069458a9.58035278 9.58035278 0 0 1 2.59634399 8.62866211 9.57952881 9.57952881 0 0 1-5.71096801 6.96835327c-18.07553101 7.5319519-37.17773438 11.35025024-56.78009034 11.35025025-40.06576538 0-77.7189331-15.92495727-106.02493286-44.84152223-25.41055297-25.9552002-40.75460815-60.3734436-43.20758056-96.91589355-2.22061157-33.09246826 6.18640137-66.0687561 23.76672363-93.80374145L246.37283325 203.62866211000005a10.01953125 10.01953125 0 0 1-0.61798096-0.5776062c-20.45352173-20.89517212-20.45269776-54.89154053-0.00164794-75.78341675L261.01733398 111.66815184999996c9.97256469-10.18844604 23.24679565-15.80136109 37.37713623-15.80136107 14.13116455 0 27.40539551 5.61291504 37.37796021 15.80136107 0.09887695 0.10134888 0.19445801 0.20352173 0.28756714 0.30816651L582.89395141 387.45245362c20.87539673-10.61361695 44.01260376-16.19274902 67.38958741-16.19274903 39.79879761 0 77.17675781 15.79641724 105.25286865 44.47732544 21.34506226 21.80401612 35.57675171 49.27697753 41.15588379 79.44927979 5.43823242 29.40106201 2.39529419 59.52804565-8.79675293 87.12130737z m-46.05523682-153.16287232c-24.43991089-24.96890258-56.95559692-38.7185669-91.55676269-38.7185669-22.61975097 0-44.99066162 6.00183106-64.69436645 17.35702515a9.58364868 9.58364868 0 0 1-11.92208863-1.90750122L321.93624878 124.93167114000005c-6.32070922-6.3833313-14.67333984-9.89840698-23.54013062-9.89840698-8.93353271 0-17.3421936 3.56533813-23.67938232 10.04095459L259.45178222 140.67288208000002c-13.1234436 13.4060669-13.21572876 35.15817261-0.27603149 48.68371582L542.91799927 432.12835693a9.58364868 9.58364868 0 0 1 1.55401611 12.8704834c-38.53070068 53.67041016-33.22018433 126.61605835 12.62988282 173.4491272 24.66979981 25.2020874 57.45986938 39.08276367 92.32800292 39.08276367 12.15197754 0 24.08230591-1.68667602 35.62536622-5.02542114l-80.04913331-80.63827514c-3.69140625-3.71777344-3.71200562-9.71054078-0.04779052-13.4546814l76.31158446-77.96777344a9.58941651 9.58941651 0 0 1 6.815094-2.87979126h0.03543091c2.55267334 0 4.99987792 1.01925659 6.80026245 2.83200073l80.05572509 80.63827514c13.27835083-46.61553955 0.98052979-97.04113769-33.13613891-131.89031982zM285.39050292 504.46426391l40.16381837-0.01565551L438.64154052 389.17785645a9.54821777 9.54821777 0 0 1 6.84063721-2.87155152c2.42166138 0 4.84579468 0.91131592 6.7112732 2.74136353 3.77709961 3.70706177 3.8356018 9.77481079 0.13018798 13.55273437l-115.90356445 118.14147949a9.58282471 9.58282471 0 0 1-6.83734131 2.87155151l-38.80014038 0.01400758-44.46084595 73.06512451 30.59005738 31.29373169 73.14175415-45.71658326 0.50427246-38.99130248a9.58282471 9.58282471 0 0 1 2.72158814-6.56542969L472.10314941 414.84301758c3.69387818-3.78945922 9.76162719-3.86608886 13.55108643-0.1722107 3.78863526 3.69470215 3.86608886 9.76327515 0.17138672 13.55191041L369.67156982 547.35379028l-0.52322388 40.39535522a9.58447266 9.58447266 0 0 1-4.50219726 8.00326539L280.52905273 648.32940674a9.58364868 9.58364868 0 0 1-11.93197632-1.42630005l-41.18554687-42.13394165a9.58282471 9.58282471 0 0 1-1.33319092-11.68148804l51.12927247-84.02233887a9.58035278 9.58035278 0 0 1 8.18289184-4.60107422zM629.80529785 345.62503052c-5.89801026 6.02078247-13.75048828 9.33810425-22.11383056 9.33810425-0.00082398 0 0 0 0 0-8.36334229 0-16.21829224-3.31732177-22.11877442-9.34140015l-9.62237549-9.83578491-7.4866333 7.67944336c-3.69470215 3.79110718-9.76327515 3.86773682-13.5519104 0.17138672-3.78945922-3.69387818-3.86608886-9.76245117-0.17138672-13.55191041l14.3371582-14.70465087a9.57293701 9.57293701 0 0 1 6.85217286-2.89297486h0.00906372a9.58282471 9.58282471 0 0 1 6.84970092 2.88226318l16.48196411 16.84368897c2.26263427 2.31124878 5.25366211 3.5826416 8.42102052 3.5826416 3.16818237-0.00082398 6.15838623-1.27139282 8.38558959-3.54638672l133.78628541-138.04870605c4.79470825-4.90182495 4.79470825-12.87542724 0.00082397-17.7739563l-61.06228637-62.37734986c-2.25769043-2.30795288-5.24459839-3.5793457-8.4086609-3.5793457-3.16818237-0.00164795-6.15921021 1.27139282-8.38806152 3.54638672l-133.78875732 138.05200195c-4.7963562 4.89523315-4.79388427 12.86883545 0.00082397 17.76901246l15.05813599 15.37948608c3.64443969 3.72189331 3.64938354 9.67263794 0.0098877 13.3994751l-15.29214478 15.66210937c-3.6963501 3.78863526-9.7649231 3.86114502-13.55108643 0.162323-3.7869873-3.69717407-3.86032104-9.76409912-0.16314697-13.5519104l8.74649048-8.95742798-8.50671387-8.6871643c-12.03250122-12.29864502-12.03085328-32.30227661-0.03131103-44.55230714l133.78875732-138.05282592c5.89883422-6.02078247 13.75131226-9.33810425 22.11383057-9.3364563h0.00741576c8.36087036 0.00164795 16.21170044 3.31896973 22.10064698 9.33810425l61.06311035 62.37817383c12.02838135 12.29122925 12.02838135 32.29156494 0.03213501 44.55148315L629.80529785 345.62503052z"  horiz-adv-x="1024" />

    
    <glyph glyph-name="upload" unicode="&#58944;" d="M852.4-63.60000000000002H173.6c-59.3 0-107.6 43.1-107.6 96V192.89999999999998c0 17.7 14.3 32 32 32s32-14.3 32-32v-160.5c0-17.3 19.9-32 43.6-32h678.9c23.6 0 43.6 14.7 43.6 32V192.89999999999998c0 17.7 14.3 32 32 32s32-14.3 32-32v-160.4c-0.1-53-48.4-96.1-107.7-96.1zM513.9 65.5c16.3 0 29.6 13.3 29.6 29.6V763.2c0 16.3-13.3 29.6-29.6 29.6h-4.7c-16.3 0-29.6-13.3-29.6-29.6v-668.1c0-16.3 13.3-29.6 29.6-29.6h4.7zM196.4 416.2c7.6 0 15.2 2.9 21 8.6l319.8 319.8c11.5 11.5 11.5 30.4 0 41.9l-3.3 3.3c-5.8 5.8-13.4 8.6-21 8.6s-15.2-2.9-21-8.6L172.1 470.1c-11.5-11.5-11.5-30.4 0-41.9l3.3-3.3c5.8-5.8 13.4-8.7 21-8.7zM828.1 416c7.6 0 15.2 2.9 21 8.6l3.3 3.3c11.5 11.5 11.5 30.4 0 41.9L532.6 789.7c-5.8 5.8-13.4 8.6-21 8.6s-15.2-2.9-21-8.6l-3.3-3.3c-11.5-11.5-11.5-30.4 0-41.9l319.8-319.8c5.8-5.9 13.4-8.7 21-8.7z"  horiz-adv-x="1024" />

    
    <glyph glyph-name="user" unicode="&#59193;" d="M921.923 114.818c2.96-8.88 5.225-20.372 6.616-34.301 1.394-13.929 2.090-2.786 2.090-16.715 0-13.93-1.045-27.164-2.961-39.699-2.089-12.536-5.223-21.94-9.228-28.381-2.96-4.179-11.491-8.532-25.421-13.407-13.927-4.875-159.315-46.315-363.726-46.315-186.828 0-347.71 30.296-373.305 36.042-25.595 5.746-40.916 10.621-46.314 14.626-6.616 4.875-11.492 19.327-14.626 43.529-3.134 24.375-1.915 30.47 4.005 68.426 3.656 21.939 12.536 38.654 26.64 49.797 14.278 11.316 31.166 20.196 50.319 26.639 19.327 6.616 108.822 37.435 129.369 42.832 20.545 5.398 38.479 13.059 53.802 23.158 12.535 7.661 22.111 15.148 28.902 22.286 6.79 7.139 11.665 14.278 14.278 21.416 2.611 7.14 4.005 14.453 4.005 22.286 0 7.662-0.35 16.019-0.871 25.074-1.22 14.278-5.747 25.246-13.755 32.908-8.010 7.662-16.89 15.67-27.163 24.029-4.876 4.179-8.88 9.924-12.536 17.411-3.656 7.488-6.79 14.973-9.751 22.635-2.96 8.879-5.919 18.107-8.88 27.51-6.829 2.007-12.657 5.645-17.243 10.474 1.052-1.246-2.781 2.934-6.958 8.332-4.179 5.397-7.663 13.057-10.795 23.158-2.96 9.925-4.004 19.152-2.96 27.161 0.871 8.010 2.437 14.974 4.875 20.894 2.264 6.616 5.92 12.711 10.795 18.805-0.522 22.46 0.523 45.095 3.656 67.73 2.262 18.98 6.616 39.176 12.884 60.594 6.268 21.416 15.323 40.742 27.163 57.806 11.317 16.019 23.854 29.251 37.784 39.699 13.929 10.448 28.031 18.631 42.31 24.55 14.277 5.92 28.556 9.925 43.181 12.536 14.45 2.264 28.554 3.657 42.309 3.657 17.064 0 33.777-2.089 49.45-6.267 15.67-4.18 30.295-9.403 44.050-16.020 13.581-6.615 25.945-13.755 36.39-21.765 10.795-8.009 19.327-16.191 25.945-24.549 14.799-18.979 25.943-39.873 33.43-62.681 7.486-22.81 12.71-44.226 15.495-64.424 3.656-23.68 5.050-47.534 4.528-71.214 4.177-2.263 7.487-5.919 9.75-10.795 2.264-4.177 4.352-9.402 5.746-16.017 1.391-6.618 1.566-14.452 0.348-24.030-1.741-12.535-4.701-22.285-8.356-29.772-4.005-7.487-8.184-13.232-12.885-17.412-5.398-4.875-10.969-8.009-16.89-9.75-2.263-9.404-5.050-18.805-8.010-27.511-2.96-7.661-6.441-15.321-10.099-22.635-4.004-7.488-8.183-13.233-12.884-17.411-5.397-4.875-10.272-8.705-15.147-12.014-4.875-3.134-8.88-6.616-12.536-10.099-5.684-5.649-9.778-12.892-11.555-21.002 0.411 3.067-1.504-3.025-2.723-10.164-1.741-8.88-2.264-17.934-1.741-27.162 0.523-9.054 2.96-18.456 7.14-27.51 4.178-9.054 10.969-17.934 20.545-26.291 9.402-8.359 22.286-15.671 38.305-22.287 14.8-5.919 31.168-11.143 48.579-15.496 17.585-4.526 88.102-34.823 104.296-41.091 16.191-6.268 30.818-14.104 43.529-23.505 12.359-10.451 21.412-22.814 26.81-38.308zM526.333-6.194c2.96 0 7.486 1.915 13.755 5.746 6.268 4.005 12.362 8.358 18.281 13.755 5.92 5.398 11.144 10.795 15.496 16.019 4.527 5.397 6.335 9.414 6.616 12.536 0.331 3.669-0.871 9.75-2.611 18.804-1.741 8.88-4.005 18.805-6.267 29.251-2.265 10.795-4.876 21.243-7.14 31.689-2.264 10.448-4.526 18.805-6.268 25.421 5.919 4.875 10.969 9.925 15.148 15.495 4.179 5.747 6.267 11.492 6.267 17.411 0 4.876-1.566 9.578-4.875 14.628-3.134 5.049-6.965 9.227-11.143 12.884-4.876 4.177-9.751 8.357-15.149 12.537h-44.4c-5.919-4.18-10.969-8.359-15.146-12.537-3.656-3.656-6.791-7.662-9.751-12.536-2.96-4.875-4.527-9.401-4.527-14.278 0-3.656 2.089-8.357 6.616-14.279 4.528-5.919 9.925-11.665 16.368-16.889-2.487-7.686-5.158-15.327-7.14-23.157-2.629-10.39-5.745-20.545-8.356-31.689-2.612-10.97-5.049-21.416-7.139-31.166s-3.348-16.904-2.96-21.764c0.242-3.031 2.089-7.14 6.615-12.536 4.527-5.399 9.751-10.795 16.020-16.019 6.268-5.399 12.363-9.925 18.281-13.755 6.096-3.481 10.624-5.571 13.409-5.571z"  horiz-adv-x="1024" />

    
    <glyph glyph-name="backup" unicode="&#58889;" d="M482.112-86.39999999999998C218.912-86.39999999999998 3.936 126.78399999999999 2.176 390.368 0.416 655.072 214.272 871.808 478.944 873.6h3.264c263.2 0 478.176-213.184 479.936-476.768a32 32 0 0 0-31.776-32.224h-0.224a32 32 0 0 0-32 31.776C896.64 624.832 710.304 809.6 482.208 809.6h-2.816C250.016 808.064 64.64 620.192 66.176 390.816c1.536-229.408 189.792-413.888 418.752-413.216h0.224a32 32 0 0 0 0.224-64h-3.264zM765.824 70.84799999999996a31.872 31.872 0 0 0-22.656 9.408l-255.328 256a32 32 0 1 0 45.312 45.184l255.328-256a32 32 0 0 0-22.656-54.592zM484.928 393.6m-64 0a64 64 0 1 1 128 0 64 64 0 1 1-128 0ZM950.688 328.96000000000004c-12.672-17.984-33.92-18.368-47.264-0.864l-72.64 95.52c-13.312 17.504-6.208 31.968 15.776 32.096l154.336 1.024c21.984 0.16 29.632-14.432 16.96-32.416l-67.168-95.36zM484.896 418.688a32 32 0 0 0-32 32v192a32 32 0 1 0 64 0v-192a32 32 0 0 0-32-32z"  horiz-adv-x="1024" />

    
    <glyph glyph-name="save" unicode="&#58929;" d="M850.706 887.186L173.353 887.19C76.478 878.546 0 797.848 0 698.737v-633.882c0-104.824 85.294-190.118 190.118-190.118h643.765c104.824 0 190.118 85.294 190.118 190.118V698.737C1024 797.818 947.57 878.513 850.706 887.186zM790.471 828.62v-418.176H233.588V828.62h556.883z m173.294-763.765c0-71.588-58.294-129.882-129.882-129.882H190.118c-71.618 0-129.882 58.294-129.882 129.882V698.737c0 65.904 49.474 119.89 113.118 128.217v-476.746h677.353V826.947c63.614-8.353 113.059-62.335 113.059-128.21v-633.882zM603.886 704.476h62.379v-208.04h-62.379z"  horiz-adv-x="1024" />

    
    <glyph glyph-name="times-dot" unicode="&#58898;" d="M512 457.35L657.35 609 737 545.4375 582.3125 384 737 222.5625 657.35 159 512 310.65 366.65 159 287 222.5625 441.6875 384 287 545.4375 366.65 609 512 457.35zM62 496.5V721.8375C62 783.76875 112.34375 834 174.1625 834H399.5v-112.5H174.5v-225H62z m0-225h112.5v-225h225v-112.5H174.1625A112.21875 112.21875 0 0 0 62 46.16250000000002V271.5z m900 225h-112.5V721.5h-225V834h225.3375C911.76875 834 962 783.65625 962 721.8375V496.5z m0-225v-225.3375A112.21875 112.21875 0 0 0 849.8375-66H624.5v112.5h225v225h112.5z"  horiz-adv-x="1024" />

    
    <glyph glyph-name="times-circle" unicode="&#58899;" d="M512-14.222221999999988A398.222222 398.222222 0 1 1 512 782.222222a398.222222 398.222222 0 0 1 0-796.444444z m0.455111 473.884444L364.088889 609.393778 284.444444 536.291556l152.007112-153.372445L284.444444 229.54666699999996 364.088889 156.44444399999998l148.366222 149.788445L660.935111 156.44444399999998l79.587556 73.102223-152.007111 153.372444 152.007111 153.372445-79.644445 73.102222L512.455111 459.662222zM512-128A512 512 0 1 0 512 896a512 512 0 0 0 0-1024z"  horiz-adv-x="1024" />

    
    <glyph glyph-name="subdomain" unicode="&#58989;" d="M505.152-30.20799999999997a410.368 410.368 0 0 0-409.92 409.856 410.432 410.432 0 0 0 409.92 409.984 410.432 410.432 0 0 0 409.92-409.984 410.368 410.368 0 0 0-409.92-409.856z m0 787.648a378.24 378.24 0 0 1-377.728-377.792 378.112 378.112 0 0 1 377.728-377.664 378.112 378.112 0 0 1 377.728 377.664 378.24 378.24 0 0 1-377.728 377.792zM503.936 411.008c-219.008 0-369.024 96.064-371.2 97.536a10.752 10.752 0 0 0-3.136 14.848 10.752 10.752 0 0 0 14.848 3.072c3.328-2.176 329.984-210.752 721.92 0.448a10.624 10.624 0 0 0 14.528-4.352 10.688 10.688 0 0 0-4.352-14.528c-134.976-72.704-262.528-97.024-372.608-97.024zM503.936 169.60000000000002c-219.008 0-369.024 96-371.2 97.536a10.752 10.752 0 0 0-3.136 14.848 10.752 10.752 0 0 0 14.848 3.072c3.328-2.112 329.984-210.752 721.92 0.512a10.752 10.752 0 0 0 10.176-18.88c-134.976-72.768-262.528-97.088-372.608-97.088zM437.952-13.504000000000019a10.688 10.688 0 0 0-9.472 5.632C201.6 413.12 426.688 764.672 428.992 768.192a10.752 10.752 0 0 0 17.92-11.776c-2.176-3.392-220.224-344.704 0.512-754.112a10.752 10.752 0 0 0-4.352-14.592 11.328 11.328 0 0 0-5.12-1.216zM576.384-13.504000000000019a10.816 10.816 0 0 0-9.472 15.872c220.992 409.792 2.752 750.656 0.512 754.048a10.752 10.752 0 0 0 17.92 11.776c2.368-3.52 227.456-355.072 0.512-776.064a10.624 10.624 0 0 0-9.472-5.632z"  horiz-adv-x="1024" />

    
    <glyph glyph-name="ftp" unicode="&#59237;" d="M692 654a30 30 0 1 1 60 0 30 30 0 0 1-60 0zM878 804H146c-30 0-54-24-54-60v-720c0-30 24-60 54-60h256.5v60H176c-12 0-24 12-24 30V264h295.5c12 0 24 12 24 30s-12 30-24 30H152V504h720v-67.5h60V744c0 36-24 60-54 60zM152 564V714c0 18 12 30 24 30H842c18 0 30-12 30-30v-150H152zM800.105 315.8325c0 59.535-48.5175 107.85-108.465 107.85s-108.4725-48.3225-108.4725-107.85c0-59.7525 48.525-108.0675 108.4725-108.0675s108.465 48.315 108.465 108.0675z m126.735-330.27c0-11.5575-15.99-21.5625-27.7725-21.5625-11.79 0-27.8925 8.91-29.0625 20.745l-0.3525 3.165c-13.2 93.105-77.895 146.8125-175.47 147.99l-2.355-0.24-2.355 0.24c-96.3975-1.1775-160.8225-52.89-175.44-144.33-0.0375-2.7225-0.7425-7.1775-0.7425-7.1775-1.0575-11.835-15.1725-20.3925-26.955-20.3925-12.0225 0-28.83 8.79-29.535 20.3925 0 0 0.03 5.055 0.51 6.705 11.0775 85.8 68.82 155.1 147.54 185.025-45.9525 29.22-75.66 80.8425-75.66 139.77 0 90.975 71.175 164.985 162.6375 164.985 91.6875 0 162.63-74.01 162.63-164.985 0-58.92-29.7-110.5425-75.4275-139.77 78.015-29.7 135.525-98.28 147.315-183.135 0.7125-2.3625 0.495-7.425 0.495-7.425z"  horiz-adv-x="1024" />

    
    <glyph glyph-name="power" unicode="&#59185;" d="M756.622222 685.511111l-39.822222-39.822222C796.444444 577.4222219999999 853.333333 475.022222 853.333333 355.555556c0-204.8-164.977778-369.777778-369.777777-369.777778S113.777778 150.75555599999996 113.777778 355.555556c0 119.466667 56.888889 227.555556 147.911111 295.822222l-39.822222 39.822222C119.466667 617.2444439999999 56.888889 492.088889 56.888889 355.555556 56.888889 122.31111099999998 250.311111-71.11111100000005 483.555556-71.11111100000005S910.222222 122.31111099999998 910.222222 355.555556c0 130.844444-62.577778 250.311111-153.6 329.955555zM455.111111 839.111111h56.888889v-512H455.111111z"  horiz-adv-x="1024" />

    
    <glyph glyph-name="up-line" unicode="&#58882;" d="M487.56300105 593.49124489l-370.0528267-370.05282672c-14.14800877-14.14800877-14.14800877-37.97398565 0-52.8650594 14.14800877-14.14800877 37.97398565-14.14800877 52.86505939 0l343.99118223 343.99118222 342.49987413-342.49987413c14.14800877-14.14800877 37.97398565-14.14800877 52.86505939 0 14.14800877 14.14800877 14.14800877 37.97398565 0 52.8650594l-368.55892954 368.55892955c-15.6341387 14.8897792-38.71705063 14.8897792-53.61718614 0Z"  horiz-adv-x="1024" />

    
    <glyph glyph-name="down-line" unicode="&#58881;" d="M536.37627522 175.02932196999996l369.13327878 369.1332788c14.11285224 14.11285224 14.11285224 37.87962372 0 52.7336945-14.11285224 14.11285224-37.87962372 14.11285224-52.73369447 0l-343.13639516-343.13639515-341.64879284 341.64879282c-14.11285224 14.11285224-37.87962372 14.11285224-52.73369447 0-14.11285224-14.11285224-14.11285224-37.87962372 0-52.73369447l367.64309383-367.64309384c15.59528928-14.85277944 38.62084225-14.85277945 53.48395225 0Z"  horiz-adv-x="1024" />

    


  </font>
</defs>
</svg>
